<?xml version="1.0" encoding="UTF-8" standalone="no"?>
<svg
   id="Capa_1"
   enable-background="new 0 0 512 512"
   height="512"
   viewBox="0 0 512 512"
   width="512"
   version="1.1"
   sodipodi:docname="038-ebook.svg"
   inkscape:version="1.1 (c68e22c387, 2021-05-23)"
   xmlns:inkscape="http://www.inkscape.org/namespaces/inkscape"
   xmlns:sodipodi="http://sodipodi.sourceforge.net/DTD/sodipodi-0.dtd"
   xmlns="http://www.w3.org/2000/svg"
   xmlns:svg="http://www.w3.org/2000/svg">
  <defs
     id="defs134" />
  <sodipodi:namedview
     id="namedview132"
     pagecolor="#ffffff"
     bordercolor="#666666"
     borderopacity="1.0"
     inkscape:pageshadow="2"
     inkscape:pageopacity="0.0"
     inkscape:pagecheckerboard="0"
     showgrid="false"
     inkscape:zoom="1.625"
     inkscape:cx="403.38462"
     inkscape:cy="256.30769"
     inkscape:window-width="1920"
     inkscape:window-height="1017"
     inkscape:window-x="-8"
     inkscape:window-y="-8"
     inkscape:window-maximized="1"
     inkscape:current-layer="g127" />
  <linearGradient
     id="SVGID_1_"
     gradientTransform="matrix(1 0 0 -1 -561.6 -10842.99)"
     gradientUnits="userSpaceOnUse"
     x1="1068.089"
     x2="528.035"
     y1="-10954.263"
     y2="-11266.295">
    <stop
       offset="0"
       stop-color="#fff3ee"
       stop-opacity="0"
       id="stop2" />
    <stop
       offset=".2938"
       stop-color="#ffeade"
       stop-opacity=".373"
       id="stop4" />
    <stop
       offset=".7874"
       stop-color="#ffd6bb"
       id="stop6" />
  </linearGradient>
  <g
     id="g129">
    <g
       id="g127">
      <path
         d="m361.232 275.692c-56.758 0-102.769-46.011-102.769-102.769v-65.231c-.001-59.477-48.216-107.692-107.693-107.692s-107.693 48.215-107.693 107.692v86.154c0 175.712 142.443 318.154 318.153 318.154 59.477 0 107.692-48.215 107.692-107.692v-20.923c.001-59.477-48.214-107.693-107.69-107.693z"
         fill="url(#SVGID_1_)"
         id="path9"
         style="fill:#ffe9a6" />
      <g
         id="g125">
        <g
           id="g121">
          <path
             d="m432.361 127.77h-63.056v-34.147c0-5.52-4.48-10-10-10h-290c-5.52 0-10 4.48-10 10v120c0 5.52 4.48 10 10 10h204.376v67.504h-156.48c-2.241 0-4.057 1.817-4.057 4.057v70.552c0 2.241 1.817 4.057 4.057 4.057h.289c-13.328.035-25.398 5.455-34.15 14.197-8.77 8.77-14.2 20.89-14.2 34.28 0 26.77 21.71 48.47 48.48 48.47h228.19c2.76 0 5-2.24 5-5v-25.67h81.55c9.11 0 16.5-7.39 16.5-16.49v-275.32c.001-9.1-7.39-16.49-16.499-16.49z"
             fill="#2626bc"
             opacity=".1"
             id="path11"
             style="fill:#86cfda" />
          <path
             d="m409.854 39.952h-3v-3c0-2.762-2.238-5-5-5s-5 2.238-5 5v3h-3c-2.762 0-5 2.238-5 5s2.238 5 5 5h3v3c0 2.762 2.238 5 5 5s5-2.238 5-5v-3h3c2.762 0 5-2.238 5-5s-2.238-5-5-5z"
             fill="#ff9d33"
             id="path13" />
          <path
             d="m381.668 459.198h-3v-3c0-2.762-2.238-5-5-5s-5 2.238-5 5v3h-3c-2.762 0-5 2.238-5 5s2.238 5 5 5h3v3c0 2.762 2.238 5 5 5s5-2.238 5-5v-3h3c2.762 0 5-2.238 5-5s-2.238-5-5-5z"
             fill="#ff9d33"
             id="path15" />
          <path
             d="m72.304 261.738c-1.279 0-2.56-.488-3.535-1.465l-4.465-4.464-4.465 4.464c-1.951 1.953-5.119 1.953-7.07 0-1.953-1.952-1.953-5.118 0-7.07l8-8c1.951-1.953 5.119-1.953 7.07 0l8 8c1.953 1.952 1.953 5.118 0 7.07-.975.977-2.255 1.465-3.535 1.465z"
             fill="#ff6c6c"
             id="path17" />
          <path
             d="m88.304 297.917c-1.279 0-2.56-.488-3.535-1.465l-4.465-4.464-4.465 4.464c-1.951 1.953-5.119 1.953-7.07 0-1.953-1.952-1.953-5.118 0-7.07l8-8c1.951-1.953 5.119-1.953 7.07 0l8 8c1.953 1.952 1.953 5.118 0 7.07-.975.977-2.255 1.465-3.535 1.465z"
             fill="#8383ff"
             id="path19"
             style="fill:#13889b" />
          <path
             d="m436.333 77.344c-1.279 0-2.56-.488-3.535-1.465l-4.465-4.464-4.465 4.464c-1.951 1.953-5.119 1.953-7.07 0-1.953-1.952-1.953-5.118 0-7.07l8-8c1.951-1.953 5.119-1.953 7.07 0l8 8c1.953 1.952 1.953 5.118 0 7.07-.975.976-2.256 1.465-3.535 1.465z"
             fill="#8383ff"
             id="path21"
             style="fill:#106e7d" />
          <g
             id="g75">
            <g
               id="g49">
              <g
                 id="g47">
                <g
                   id="g39">
                  <path
                     d="m448.861 117.26v275.32c0 9.1-7.39 16.49-16.5 16.49h-142.18c-9.11 0-16.5-7.39-16.5-16.49v-275.32c0-9.1 7.39-16.49 16.5-16.49h142.18c9.109 0 16.5 7.39 16.5 16.49z"
                     fill="#8383ff"
                     id="path23"
                     style="fill:#17a2b8" />
                  <g
                     id="g27">
                    <path
                       d="m390.431 397.62-11.45 11.45h-9.59l-30.32-30.32-14.04 14.04c-2.68 2.68-7.25 1.53-8.33-2.1l-20.34-68.21c-1.14-3.81 2.41-7.36 6.22-6.22l68.21 20.34c3.63 1.08 4.78 5.65 2.1 8.33l-14.04 14.04 31.58 31.58c1.949 1.95 1.949 5.12 0 7.07z"
                       fill="#4d4dff"
                       id="path25"
                       style="fill:#0c5460" />
                  </g>
                  <g
                     id="g31">
                    <path
                       d="m273.681 133.76h175.18v242.32h-175.18z"
                       fill="#ebebff"
                       id="path29"
                       style="fill:#abdee5" />
                  </g>
                  <g
                     id="g35">
                    <path
                       d="m273.681 133.76h175.18v117.24h-175.18z"
                       fill="#fff"
                       id="path33" />
                  </g>
                  <path
                     d="m369.301 133.76v73.99c0 5.52-4.48 10-10 10h-38.29l-8.42 24.74c-2.66 7.82-13.72 7.82-16.38 0l-8.41-24.74h-14.12v-83.99z"
                     fill="#ebebff"
                     id="path37"
                     style="fill:#abdee5" />
                </g>
                <g
                   fill="#2c27ff"
                   id="g45">
                  <circle
                     cx="385.539"
                     cy="119.478"
                     r="4.815"
                     id="circle41"
                     style="fill:#0c5460" />
                  <circle
                     cx="401.855"
                     cy="119.478"
                     r="4.815"
                     id="circle43"
                     style="fill:#0c5460" />
                </g>
              </g>
            </g>
            <g
               id="g63">
              <path
                 d="m350.81 347.79v86.95c0 2.76-2.24 5-5 5h-228.19c-26.77 0-48.48-21.7-48.48-48.47 0-13.39 5.43-25.51 14.2-34.28 8.78-8.77 20.9-14.2 34.28-14.2h228.19c2.76 0 5 2.24 5 5z"
                 fill="#ff6c6c"
                 id="path51" />
              <g
                 id="g55">
                <path
                   d="m350.81 347.79v42.7l-11.74-11.74-14.04 14.04c-2.68 2.68-7.25 1.53-8.33-2.1l-14.28-47.9h43.39c2.76 0 5 2.24 5 5z"
                   fill="#ff4d4d"
                   id="path53" />
              </g>
              <path
                 d="m350.81 365.87v50.79h-231.33c-14.03 0-25.4-11.37-25.4-25.39 0-7.01 2.84-13.37 7.44-17.96 4.6-4.6 10.94-7.44 17.96-7.44z"
                 fill="#fff"
                 id="path57" />
              <g
                 id="g61">
                <path
                   d="m350.81 365.87v24.62l-11.74-11.74-14.04 14.04c-2.68 2.68-7.25 1.53-8.33-2.1l-7.4-24.82z"
                   fill="#fee"
                   id="path59" />
              </g>
            </g>
            <g
               id="g69">
              <path
                 d="m117.201 342.793h185.169c21.723 0 39.333-17.61 39.333-39.333s-17.61-39.333-39.333-39.333h-185.169c-2.241 0-4.057 1.816-4.057 4.057v70.552c0 2.241 1.817 4.057 4.057 4.057z"
                 fill="#ff9d33"
                 id="path65"
                 style="fill:#fea75f" />
              <path
                 d="m113.144 324.067h187.714c11.381 0 20.607-9.226 20.607-20.607s-9.226-20.607-20.607-20.607h-187.714z"
                 fill="#fff"
                 id="path67" />
            </g>
            <g
               id="g73">
              <path
                 d="m370.788 315.473-68.208-20.341c-3.809-1.136-7.356 2.412-6.22 6.22l20.341 68.208c1.082 3.629 5.649 4.784 8.327 2.107l14.043-14.043 31.581 31.581c1.953 1.953 5.118 1.953 7.071 0l12.711-12.711c1.953-1.953 1.953-5.118 0-7.071l-31.581-31.581 14.043-14.043c2.677-2.677 1.521-7.244-2.108-8.326z"
                 fill="#8383ff"
                 id="path71"
                 style="fill:#86cfda" />
            </g>
          </g>
          <g
             id="g119">
            <path
               d="m369.305 66.623v120c0 5.52-4.48 10-10 10h-38.29l-8.42 24.74c-2.66 7.82-13.72 7.82-16.38 0l-8.41-24.74h-218.5c-5.52 0-10-4.48-10-10v-120c0-5.52 4.48-10 10-10h290c5.519 0 10 4.48 10 10z"
               fill="#ffc599"
               id="path77"
               style="fill:#febc85" />
            <path
               d="m174.555 81.143c0 23.34-18.92 42.26-42.25 42.26-23.34 0-42.26-18.92-42.26-42.26 0-9.14 2.91-17.61 7.85-24.52h68.81c4.94 6.91 7.85 15.38 7.85 24.52z"
               fill="#ff9d33"
               id="path79" />
            <g
               id="g109">
              <g
                 id="g101">
                <g
                   id="g99">
                  <g
                     fill="#ff7300"
                     id="g85">
                    <path
                       d="m185.305 162.408h-90.046c-2.611 0-4.943 1.909-5.191 4.508-.285 2.982 2.053 5.492 4.976 5.492h90.26c2.761 0 5-2.239 5-5 .001-2.762-2.238-5-4.999-5z"
                       id="path81"
                       style="fill:#fed1aa" />
                    <path
                       d="m333.349 162.408h-122.544c-2.761 0-5 2.239-5 5s2.239 5 5 5h122.76c2.924 0 5.261-2.51 4.976-5.492-.248-2.599-2.58-4.508-5.192-4.508z"
                       id="path83"
                       style="fill:#fed1aa" />
                  </g>
                  <g
                     id="g89">
                    <path
                       d="m95.045 142.905h238.52c2.762 0 5 2.239 5 5s-2.238 5-5 5h-238.52c-2.762 0-5-2.239-5-5s2.238-5 5-5z"
                       fill="#ff4d4d"
                       id="path87"
                       style="fill:#ac560e" />
                  </g>
                  <g
                     id="g93">
                    <path
                       d="m282.128 123.403h51.436c2.762 0 5 2.239 5 5s-2.238 5-5 5h-51.436c-2.762 0-5-2.239-5-5 0-2.762 2.238-5 5-5z"
                       fill="#ff4d4d"
                       id="path91"
                       style="fill:#ac560e" />
                  </g>
                  <g
                     id="g97">
                    <path
                       d="m95.045 123.403h163.26c2.762 0 5 2.239 5 5s-2.238 5-5 5h-163.26c-2.762 0-5-2.239-5-5 0-2.762 2.238-5 5-5z"
                       fill="#ff4d4d"
                       id="path95"
                       style="fill:#ac560e" />
                  </g>
                </g>
              </g>
              <g
                 fill="#8383ff"
                 id="g107">
                <circle
                   cx="315.576"
                   cy="100.871"
                   r="5"
                   id="circle103"
                   style="fill:#13889b" />
                <circle
                   cx="331.826"
                   cy="100.871"
                   r="5"
                   id="circle105"
                   style="fill:#13889b" />
              </g>
            </g>
            <g
               id="g117">
              <circle
                 cx="132.301"
                 cy="63.615"
                 fill="#ff6c6c"
                 r="42.256"
                 id="circle111" />
              <path
                 d="m448.857 301.366c2.762 0 5-2.238 5-5v-179.102c0-11.851-9.641-21.491-21.491-21.491h-58.062v-29.152c0-8.271-6.729-15-15-15h-181.294c-5.322-20.267-23.796-35.262-45.71-35.262-21.913 0-40.387 14.995-45.709 35.262h-17.287c-8.271 0-15 6.729-15 15v120c0 8.271 6.729 15 15 15h123.729c2.762 0 5-2.238 5-5s-2.238-5-5-5h-123.729c-2.757 0-5-2.243-5-5v-120c0-2.757 2.243-5 5-5h15.791c-.028.662-.051 1.325-.051 1.994 0 26.057 21.199 47.256 47.256 47.256 26.058 0 47.257-21.199 47.257-47.256 0-.669-.023-1.332-.051-1.994h179.798c2.757 0 5 2.243 5 5v120c0 2.757-2.243 5-5 5h-38.292c-2.141 0-4.045 1.363-4.733 3.391l-8.413 24.741c-.782 2.297-2.845 2.476-3.458 2.476h-.001c-.613 0-2.676-.178-3.457-2.476l-8.413-24.741c-.688-2.027-2.593-3.391-4.733-3.391h-64.169c-2.762 0-5 2.238-5 5s2.238 5 5 5h45.05v57.506h-151.484c-4.994 0-9.057 4.063-9.057 9.057v70.467c-24.98 4.487-44 26.365-44 52.616 0 29.485 23.987 53.473 53.473 53.473h228.193c5.514 0 10-4.486 10-10v-20.671h76.556c11.851 0 21.491-9.642 21.491-21.492v-65.609c0-2.762-2.238-5-5-5s-5 2.238-5 5v65.609c0 6.337-5.155 11.492-11.491 11.492h-76.556v-22.633l11.305 11.304c1.889 1.89 4.399 2.931 7.071 2.931 2.671 0 5.183-1.04 7.071-2.929l12.712-12.712c3.897-3.899 3.897-10.243-.001-14.141l-28.046-28.046 10.507-10.508c2.516-2.515 3.496-6.075 2.624-9.523-.873-3.448-3.429-6.114-6.837-7.13l-25.524-7.612c-.211-24.266-20.009-43.943-44.324-43.943h-23.685v-57.506h5.538l7.26 21.351c1.912 5.623 6.985 9.257 12.925 9.257h.001c5.939 0 11.013-3.633 12.925-9.257l7.261-21.351h34.711c8.271 0 15-6.729 15-15v-80.849h58.062c6.336 0 11.491 5.155 11.491 11.491v179.103c0 2.762 2.238 5 5 5zm-316.556-200.495c-20.543 0-37.256-16.713-37.256-37.256s16.713-37.256 37.256-37.256c20.544 0 37.257 16.713 37.257 37.256s-16.714 37.256-37.257 37.256zm213.515 333.868h-228.2c-23.971 0-43.473-19.502-43.473-43.473 0-23.972 19.502-43.474 43.473-43.474h184.752 2.622l6.917 23.196c1.017 3.408 3.683 5.964 7.131 6.837 3.452.875 7.01-.108 9.523-2.624l10.508-10.507 6.742 6.742zm23.542-114.474-14.043 14.043c-.938.938-1.465 2.209-1.465 3.535s.526 2.598 1.465 3.535l31.582 31.581-12.712 12.711-31.581-31.581c-.976-.977-2.256-1.465-3.535-1.465s-2.56.488-3.535 1.465l-14.044 14.043-20.34-68.209zm-32.841-20.229-32.509-9.695c-3.522-1.049-7.328-.088-9.929 2.512-2.601 2.601-3.563 6.405-2.512 9.929l10.441 35.012h-183.863v-68.666h184.225c17.773-.001 32.422 13.58 34.147 30.908z"
                 fill="#2626bc"
                 id="path113"
                 style="fill:#106e7d" />
              <path
                 d="m148.915 57.809c0-9.161-7.453-16.613-16.613-16.613s-16.613 7.453-16.613 16.613c0 4.518 1.818 8.615 4.755 11.613-2.936 2.998-4.755 7.095-4.755 11.613 0 2.761 2.238 5 5 5s5-2.239 5-5c0-3.646 2.967-6.613 6.613-6.613s6.613 2.967 6.613 6.613c0 2.761 2.238 5 5 5s5-2.239 5-5c0-4.518-1.818-8.615-4.755-11.613 2.936-2.998 4.755-7.096 4.755-11.613zm-16.614-6.614c3.646 0 6.613 2.967 6.613 6.613s-2.967 6.613-6.613 6.613-6.613-2.967-6.613-6.613 2.966-6.613 6.613-6.613z"
                 fill="#fff"
                 id="path115" />
            </g>
          </g>
        </g>
        <circle
           cx="401.855"
           cy="252.738"
           fill="#ff6c6c"
           r="21.389"
           id="circle123" />
      </g>
    </g>
  </g>
</svg>
