<?xml version="1.0" encoding="UTF-8" standalone="no"?>
<svg
   id="Capa_1"
   enable-background="new 0 0 512 512"
   height="512"
   viewBox="0 0 512 512"
   width="512"
   version="1.1"
   sodipodi:docname="048-online learning.svg"
   inkscape:version="1.1 (c68e22c387, 2021-05-23)"
   xmlns:inkscape="http://www.inkscape.org/namespaces/inkscape"
   xmlns:sodipodi="http://sodipodi.sourceforge.net/DTD/sodipodi-0.dtd"
   xmlns="http://www.w3.org/2000/svg"
   xmlns:svg="http://www.w3.org/2000/svg">
  <defs
     id="defs136" />
  <sodipodi:namedview
     id="namedview134"
     pagecolor="#ffffff"
     bordercolor="#666666"
     borderopacity="1.0"
     inkscape:pageshadow="2"
     inkscape:pageopacity="0.0"
     inkscape:pagecheckerboard="0"
     showgrid="false"
     inkscape:zoom="1.625"
     inkscape:cx="403.38462"
     inkscape:cy="305.53846"
     inkscape:window-width="1920"
     inkscape:window-height="1017"
     inkscape:window-x="-8"
     inkscape:window-y="-8"
     inkscape:window-maximized="1"
     inkscape:current-layer="g129" />
  <linearGradient
     id="SVGID_1_"
     gradientTransform="matrix(0 -1 -1 0 -569.6 -3194.99)"
     gradientUnits="userSpaceOnUse"
     x1="-3191.373"
     x2="-3675.829"
     y1="-1481.861"
     y2="-127.465">
    <stop
       offset="0"
       stop-color="#fff3ee"
       stop-opacity="0"
       id="stop2" />
    <stop
       offset=".2938"
       stop-color="#ffeade"
       stop-opacity=".373"
       id="stop4" />
    <stop
       offset=".7874"
       stop-color="#ffd6bb"
       id="stop6" />
  </linearGradient>
  <g
     id="g131">
    <g
       id="g129">
      <g
         id="g11">
        <path
           d="m180.252.001c-100.63.534-151.151 173.599-170.006 262.559-18.855 88.961.847 271.458 147.096 247.249 23.64-3.913 29.158-4.715 48.645-14.497 34.685-17.411 75.734-29.661 112.83-33.359 15.211-1.516 34.445-6.538 44.624-8.368 81.626-14.679 164.928-93.76 139.709-176.622-18.939-62.228-74.428-87.278-129.998-83.834-30.518 1.891-62.997-16.011-69.51-35.788-21.214-64.417-45.612-157.752-123.39-157.34z"
           fill="url(#SVGID_1_)"
           id="path9"
           style="fill:#ffe9a6" />
      </g>
      <g
         id="g127">
        <path
           d="m433.185 181.671h-362.08c-8.29 0-15 6.71-15 15v203.94c0 8.29 6.71 15 15 15h126.18v23.5c0 4.02 4.5 6.39 7.82 4.13l13.31-9.07 13.31 9.07c3.32 2.26 7.82-.11 7.82-4.13v-23.5h36.544v15.593c0 2.761 2.239 5 5 5h105.074c2.761 0 5-2.239 5-5v-15.593h42.022c8.29 0 15-6.71 15-15v-203.94c0-8.29-6.71-15-15-15z"
           fill="#2626bc"
           opacity=".1"
           id="path13"
           style="fill:#86cfda" />
        <g
           id="g63">
          <g
             id="g29">
            <path
               d="m448.185 169.671v203.94c0 8.29-6.71 15-15 15h-362.08c-8.29 0-15-6.71-15-15v-203.94c0-8.29 6.71-15 15-15h362.08c8.29 0 15 6.71 15 15z"
               fill="#b3b3ff"
               id="path15"
               style="fill:#abdee5" />
            <path
               d="m415.145 154.671v210.18c0 5.52-4.48 10-10 10h-143c-2.76 0-5.26-1.12-7.07-2.93s-2.93-4.31-2.93-7.07c0 5.52-4.48 10-10 10h-143c-5.52 0-10-4.48-10-10v-210.18z"
               fill="#9494ff"
               id="path17"
               style="fill:#3cb1c3" />
            <g
               id="g21">
              <path
                 d="m448.187 342.217h-392.086v-172.548c0-8.284 6.716-15 15-15h362.086c8.284 0 15 6.716 15 15z"
                 fill="#ff6c6c"
                 id="path19"
                 style="fill:#fea75f" />
            </g>
            <g
               id="g27">
              <path
                 d="m239.545 350.491v61.62c0 4.02-4.5 6.39-7.82 4.13l-13.31-9.07-13.31 9.07c-3.32 2.26-7.82-.11-7.82-4.13v-61.62z"
                 fill="#ff6c6c"
                 id="path23"
                 style="fill:#fd933a" />
              <path
                 d="m197.285 350.491h42.26v24.36h-42.26z"
                 fill="#ff4d4d"
                 id="path25"
                 style="fill:#d56a11" />
            </g>
          </g>
          <g
             id="g61">
            <path
               d="m252.145 157.881v189.42c0 5.52-4.48 10-10 10h-143c-5.52 0-10-4.48-10-10v-204.42c0-5.52 4.48-10 10-10h128c13.81 0 25 11.19 25 25z"
               fill="#fff"
               id="path31" />
            <path
               d="m185.31 329.782h-29.333c-5.523 0-10-4.477-10-10v-195.811c0-4.711 1.663-9.272 4.697-12.877l16.144-19.187c1.998-2.374 5.654-2.374 7.652 0l16.144 19.187c3.033 3.605 4.697 8.165 4.697 12.877v195.811c-.001 5.523-4.478 10-10.001 10z"
               fill="#f7f3ff"
               id="path33" />
            <g
               id="g49">
              <g
                 id="g47">
                <path
                   d="m227.57 290.734h-113.282c-2.762 0-5-2.239-5-5s2.238-5 5-5h113.282c2.762 0 5 2.239 5 5s-2.238 5-5 5z"
                   fill="#b3b3ff"
                   id="path35"
                   style="fill:#abdee5" />
                <g
                   id="g39">
                  <path
                     d="m227.57 310.236h-113.282c-2.762 0-5-2.239-5-5s2.238-5 5-5h113.282c2.762 0 5 2.239 5 5s-2.238 5-5 5z"
                     fill="#b3b3ff"
                     id="path37"
                     style="fill:#abdee5" />
                </g>
                <g
                   id="g43">
                  <path
                     d="m232.57 324.74c0 2.76-2.24 5-5 5h-113.28c-2.76 0-5-2.24-5-5s2.24-5 5-5h113.28c2.76 0 5 2.24 5 5z"
                     fill="#b3b3ff"
                     id="path41"
                     style="fill:#abdee5" />
                </g>
                <path
                   d="m195.31 319.74v.04c0 5.22-4 9.51-9.11 9.96-.29.03-.59.04-.89.04h-29.33c-.3 0-.6-.01-.89-.04-5.11-.45-9.11-4.74-9.11-9.96v-.04z"
                   fill="#9494ff"
                   id="path45"
                   style="fill:#0c5460" />
              </g>
            </g>
            <path
               d="m227 265.783h-112.712c-2.761 0-5-2.239-5-5v-101.657c0-2.761 2.239-5 5-5h112.712c2.761 0 5 2.239 5 5v101.656c0 2.762-2.239 5.001-5 5.001z"
               fill="#ff9494"
               id="path51"
               style="fill:#fea75f" />
            <path
               d="m262.145 357.301h142.999c5.523 0 10-4.477 10-10v-204.418c0-5.523-4.477-10-10-10h-127.999c-13.807 0-25 11.193-25 25v189.418c0 5.523 4.477 10 10 10z"
               fill="#fff"
               id="path53" />
            <g
               fill="#ffc599"
               id="g59">
              <path
                 d="m252.145 281v66.301c0 5.523 4.477 10 10 10h142.999c5.523 0 10-4.477 10-10v-66.301z"
                 id="path55" />
              <path
                 d="m395 204v-44.874c0-2.761-2.239-5-5-5h-112.712c-2.761 0-5 2.239-5 5v44.874c0 2.761 2.239 5 5 5h112.712c2.761 0 5-2.239 5-5z"
                 id="path57" />
            </g>
          </g>
        </g>
        <path
           d="m431.144 450.784c-1.28 0-2.559-.488-3.536-1.464l-4.464-4.464-4.464 4.464c-1.953 1.952-5.118 1.952-7.071 0-1.953-1.953-1.953-5.119 0-7.071l8-8c1.953-1.952 5.118-1.952 7.071 0l8 8c1.953 1.953 1.953 5.119 0 7.071-.977.976-2.257 1.464-3.536 1.464z"
           fill="#ff6c6c"
           id="path65"
           style="fill:#ffc107" />
        <path
           d="m97.145 110.518c-1.28 0-2.559-.488-3.536-1.464l-4.464-4.464-4.464 4.464c-1.953 1.952-5.118 1.952-7.071 0-1.953-1.953-1.953-5.119 0-7.071l8-8c1.953-1.952 5.118-1.952 7.071 0l8 8c1.953 1.953 1.953 5.119 0 7.071-.977.976-2.257 1.464-3.536 1.464z"
           fill="#ff6c6c"
           id="path67"
           style="fill:#ffc107" />
        <path
           d="m117.29 55.667h-3v-3c0-2.761-2.239-5-5-5s-5 2.239-5 5v3h-3c-2.761 0-5 2.239-5 5s2.239 5 5 5h3v3c0 2.761 2.239 5 5 5s5-2.239 5-5v-3h3c2.761 0 5-2.239 5-5s-2.239-5-5-5z"
           fill="#8383ff"
           id="path69"
           style="fill:#0c5460" />
        <path
           d="m341.644 85.127h-3v-3c0-2.761-2.239-5-5-5s-5 2.239-5 5v3h-3c-2.761 0-5 2.239-5 5s2.239 5 5 5h3v3c0 2.761 2.239 5 5 5s5-2.239 5-5v-3h3c2.761 0 5-2.239 5-5s-2.239-5-5-5z"
           fill="#ff6c6c"
           id="path71"
           style="fill:#ffc107" />
        <path
           d="m382 461.174h-3v-3c0-2.761-2.239-5-5-5s-5 2.239-5 5v3h-3c-2.761 0-5 2.239-5 5s2.239 5 5 5h3v3c0 2.761 2.239 5 5 5s5-2.239 5-5v-3h3c2.761 0 5-2.239 5-5s-2.239-5-5-5z"
           fill="#ff9d33"
           id="path73" />
        <g
           id="g91">
          <g
             id="g79">
            <path
               d="m386.163 409.204h-105.074c-2.761 0-5-2.239-5-5v-93.805c0-2.761 115.074-2.761 115.074 0v93.805c0 2.761-2.239 5-5 5z"
               fill="#ff6c6c"
               id="path75"
               style="fill:#fd933a" />
            <path
               d="m391.163 334.084v-23.685c0-2.761-2.239-5-5-5h-105.074c-2.761 0-5 2.239-5 5v23.685z"
               fill="#ffc599"
               id="path77" />
          </g>
          <path
             d="m320.213 355.643v24.317c0 2.316 2.513 3.758 4.513 2.591l20.825-12.159c1.983-1.158 1.983-4.024 0-5.182l-20.825-12.159c-2-1.167-4.513.276-4.513 2.592z"
             fill="#fff"
             id="path81" />
          <g
             fill="#ff6c6c"
             id="g89">
            <circle
               cx="295.478"
               cy="322.75"
               r="3.5"
               id="circle83"
               style="fill:#fd7e14" />
            <circle
               cx="306.645"
               cy="322.75"
               r="3.5"
               id="circle85"
               style="fill:#fd7e14" />
            <circle
               cx="317.811"
               cy="322.75"
               r="3.5"
               id="circle87"
               style="fill:#fd7e14" />
          </g>
        </g>
        <g
           id="g105">
          <g
             id="g103">
            <path
               d="m185.31 308.754h-29.333c-5.523 0-10-4.477-10-10v-195.811c0-4.711 1.663-9.272 4.697-12.877l16.144-19.187c1.998-2.374 5.654-2.374 7.652 0l16.144 19.187c3.033 3.605 4.697 8.165 4.697 12.877v195.811c-.001 5.523-4.478 10-10.001 10z"
               fill="#8383ff"
               id="path93"
               style="fill:#106e7d" />
            <path
               d="m161.894 101.518h17.5v207.236h-17.5z"
               fill="#d9d9ff"
               id="path95" />
            <path
               d="m195.31 102.943c0-4.711-1.663-9.272-4.697-12.877l-16.143-19.186c-1.998-2.375-5.654-2.375-7.652 0l-16.144 19.187c-3.033 3.605-4.697 8.165-4.697 12.877z"
               fill="#ffd9d9"
               id="path97" />
            <path
               d="m188.594 87.667-14.124-16.787c-1.998-2.375-5.654-2.375-7.652 0l-14.124 16.786z"
               fill="#4d4dff"
               id="path99"
               style="fill:#0c5460" />
            <path
               d="m433.188 149.669h-13.045v-6.786c0-8.271-6.729-15-15-15h-127.998c-10.425 0-19.622 5.348-25 13.443-5.379-8.094-14.575-13.443-25-13.443h-26.833v-24.939c0-5.88-2.085-11.597-5.871-16.096l-16.144-19.186c-1.904-2.264-4.693-3.562-7.651-3.562 0 0 0 0-.001 0-2.958 0-5.747 1.298-7.651 3.562l-16.144 19.187c-3.786 4.5-5.871 10.216-5.871 16.096v24.939h-41.834c-8.271 0-15 6.729-15 15v6.786h-13.044c-11.028 0-20 8.972-20 20v203.944c0 11.028 8.972 20 20 20h121.187v18.498c0 3.716 2.041 7.104 5.326 8.841 1.472.778 3.077 1.163 4.676 1.163 1.97 0 3.933-.584 5.627-1.739l10.498-7.152 10.498 7.152c3.07 2.092 7.021 2.313 10.305.576 3.285-1.737 5.326-5.125 5.326-8.84v-18.498h26.546v10.591c0 5.514 4.486 10 10 10h105.074c5.514 0 10-4.486 10-10v-10.591h37.025c11.028 0 20-8.972 20-20v-203.946c-.001-11.028-8.973-20-20.001-20zm-339.043-6.786c0-2.757 2.243-5 5-5h41.833v26.817c0 2.761 2.239 5 5 5s5-2.239 5-5v-61.756c0-3.528 1.251-6.958 3.522-9.657l16.144-19.187 16.144 19.187c2.271 2.699 3.522 6.129 3.522 9.657v195.811c0 2.757-2.243 5-5 5h-29.333c-2.757 0-5-2.243-5-5v-103.455c0-2.761-2.239-5-5-5s-5 2.239-5 5v103.454c0 8.271 6.729 15 15 15h29.333c8.271 0 15-6.729 15-15v-160.871h26.833c11.028 0 20 8.972 20 20v189.418c0 2.757-2.243 5-5 5h-142.998c-2.757 0-5-2.243-5-5zm-23.044 240.73c-5.514 0-10-4.486-10-10v-203.944c0-5.514 4.486-10 10-10h13.044v187.632c0 8.271 6.729 15 15 15h93.143v21.312zm163.441 28.497-13.313-9.069c-1.698-1.157-3.932-1.157-5.63 0l-13.313 9.069v-49.809h32.26l.022 49.825c.002 0-.007-.003-.026-.016zm10.001-28.497v-21.522c2.895-.469 5.51-1.763 7.601-3.641 2.657 2.386 6.157 3.852 10 3.852h8.944v21.312zm115.757-73.214h25.863v93.805h-105.074v-93.805h48.611c2.761 0 5-2.239 5-5s-2.239-5-5-5h-48.611c-5.514 0-10 4.486-10 10v41.902h-8.944c-2.757 0-5-2.243-5-5v-189.418c0-11.028 8.972-20 20-20h127.999c2.757 0 5 2.243 5 5v204.418c0 2.757-2.243 5-5 5h-8.98v-41.902c0-5.514-4.486-10-10-10h-25.864c-2.761 0-5 2.239-5 5s2.239 5 5 5zm82.888 63.214c0 5.514-4.486 10-10 10h-37.025v-21.312h8.98c8.271 0 15-6.729 15-15v-187.632h13.045c5.514 0 10 4.486 10 10z"
               fill="#2626bc"
               id="path101"
               style="fill:#17a2b8" />
          </g>
        </g>
        <g
           id="g123">
          <g
             id="g115">
            <g
               id="g109">
              <path
                 d="m327.008 247.382h-49.52c-2.762 0-5-2.239-5-5s2.238-5 5-5h49.52c2.762 0 5 2.239 5 5s-2.238 5-5 5z"
                 fill="#8383ff"
                 id="path107"
                 style="fill:#083a42" />
            </g>
            <g
               id="g113">
              <path
                 d="m354.008 264.885h-76.52c-2.762 0-5-2.239-5-5s2.238-5 5-5h76.52c2.762 0 5 2.239 5 5s-2.238 5-5 5z"
                 fill="#8383ff"
                 id="path111"
                 style="fill:#083a42" />
            </g>
          </g>
          <g
             fill="#8383ff"
             id="g121">
            <circle
               cx="279.036"
               cy="224.332"
               r="5"
               id="circle117"
               style="fill:#083a42" />
            <circle
               cx="295.286"
               cy="224.332"
               r="5"
               id="circle119"
               style="fill:#083a42" />
          </g>
        </g>
        <circle
           cx="215.036"
           cy="171.333"
           fill="#fff"
           r="5"
           id="circle125" />
      </g>
    </g>
  </g>
</svg>
